<?xml version="1.0" standalone="no"?>
<!DOCTYPE svg PUBLIC "-//W3C//DTD SVG 20010904//EN" "http://www.w3.org/TR/2001/REC-SVG-20010904/DTD/svg10.dtd">
<svg version="1.0" xmlns="http://www.w3.org/2000/svg"
    width="364.000000pt" height="356.000000pt" viewBox="0 0 364.000000 356.000000"
    preserveAspectRatio="xMidYMid meet">

    <g transform="translate(0.000000,356.000000) scale(0.100000,-0.100000)"
        fill="#FFD964" stroke="none">
        <path
            d="M2092 3118 c-7 -9 -2 -42 15 -108 21 -83 24 -111 20 -220 -3 -82 -10
-144 -22 -180 l-17 -55 -18 46 c-34 91 -119 188 -234 268 -61 42 -96 51 -115
28 -8 -11 -5 -32 14 -87 39 -113 57 -214 64 -348 l6 -124 89 -29 c102 -34 130
-48 206 -99 77 -52 152 -129 209 -213 66 -98 87 -142 109 -228 l20 -74 38 1
c96 4 272 -19 368 -48 146 -43 147 -43 162 -23 11 15 10 24 -8 59 -65 129
-191 244 -311 286 l-49 17 31 22 c96 68 282 132 471 160 138 20 156 35 100 82
-51 43 -183 106 -270 128 -41 10 -114 22 -163 26 l-87 7 22 37 c59 99 145 207
256 322 103 107 122 132 117 150 -7 20 -11 21 -67 15 -162 -19 -402 -121 -525
-225 l-70 -58 -12 61 c-26 130 -124 275 -254 378 -51 39 -77 47 -95 26z" />
        <path
            d="M1459 2255 c-80 -15 -208 -61 -274 -98 l-40 -23 -3 -187 -2 -187 325
0 325 0 0 249 c0 218 -2 250 -16 255 -28 11 -237 5 -315 -9z" />
        <path
            d="M1862 2004 l3 -239 238 -3 c277 -3 261 -12 197 114 -50 100 -121 188
-202 249 -63 48 -159 98 -211 111 l-27 6 2 -238z" />
        <path
            d="M959 1993 c-85 -81 -189 -205 -189 -224 0 -5 68 -9 150 -9 l150 0 0
160 c0 94 -4 160 -9 160 -6 0 -51 -39 -102 -87z" />
        <path
            d="M699 1643 c-80 -182 -110 -398 -78 -557 l12 -56 216 2 216 3 3 328 2
327 -175 0 -176 0 -20 -47z" />
        <path d="M1140 1365 l0 -325 325 0 325 0 0 325 0 325 -325 0 -325 0 0 -325z" />
        <path
            d="M1860 1365 l0 -325 191 0 190 0 39 83 c61 129 82 221 87 379 3 76 2
149 -1 163 l-6 25 -250 0 -250 0 0 -325z" />
        <path
            d="M660 952 c0 -17 84 -150 126 -198 66 -78 230 -194 274 -194 6 0 10
69 10 200 l0 200 -205 0 c-113 0 -205 -3 -205 -8z" />
        <path
            d="M1140 746 c0 -194 2 -215 18 -221 9 -5 76 -10 147 -12 151 -5 267 14
403 67 l82 31 0 175 0 174 -325 0 -325 0 0 -214z" />
        <path
            d="M1860 810 c0 -82 2 -150 5 -150 28 0 315 266 315 293 0 4 -72 7 -160
7 l-160 0 0 -150z" />
    </g>
</svg>